<svg width="24" height="24" viewBox="0 0 24 24" fill="none" xmlns="http://www.w3.org/2000/svg">
<g clip-path="url(#clip0_4_10959)">
<path opacity="0.1" d="M4.81068 4.81068C5.39646 4.22489 6.34621 4.22489 6.932 4.81068L7.99266 5.87134C8.57844 6.45712 8.57844 7.40687 7.99266 7.99266C7.40687 8.57844 6.45712 8.57844 5.87134 7.99266L4.81068 6.932C4.22489 6.34621 4.22489 5.39646 4.81068 4.81068Z" fill="#121826"/>
<path opacity="0.2" d="M3 10.5H4.5C5.32843 10.5 6 11.1716 6 12C6 12.8284 5.32843 13.5 4.5 13.5H3C2.17157 13.5 1.5 12.8284 1.5 12C1.5 11.1716 2.17157 10.5 3 10.5Z" fill="#121826"/>
<path opacity="0.3" d="M4.81068 19.2427C4.22489 18.6569 4.22489 17.7071 4.81068 17.1213L5.87134 16.0607C6.45712 15.4749 7.40687 15.4749 7.99266 16.0607C8.57844 16.6465 8.57844 17.5962 7.99266 18.182L6.932 19.2427C6.34621 19.8284 5.39646 19.8284 4.81068 19.2427Z" fill="#121826"/>
<path opacity="0.4" d="M12 18C12.8284 18 13.5 18.6716 13.5 19.5V21C13.5 21.8284 12.8284 22.5 12 22.5C11.1716 22.5 10.5 21.8284 10.5 21V19.5C10.5 18.6716 11.1716 18 12 18Z" fill="#121826"/>
<path opacity="0.5" d="M16.0607 18.182C15.4749 17.5962 15.4749 16.6465 16.0607 16.0607C16.6465 15.4749 17.5962 15.4749 18.182 16.0607L19.2427 17.1213C19.8284 17.7071 19.8284 18.6569 19.2427 19.2427C18.6569 19.8284 17.7071 19.8284 17.1213 19.2427L16.0607 18.182Z" fill="#121826"/>
<path opacity="0.6" d="M19.5 10.5H21C21.8284 10.5 22.5 11.1716 22.5 12C22.5 12.8284 21.8284 13.5 21 13.5H19.5C18.6716 13.5 18 12.8284 18 12C18 11.1716 18.6716 10.5 19.5 10.5Z" fill="#121826"/>
<path opacity="0.8" d="M16.0607 5.87134L17.1213 4.81068C17.7071 4.22489 18.6569 4.22489 19.2427 4.81068C19.8284 5.39646 19.8284 6.34621 19.2427 6.932L18.182 7.99266C17.5962 8.57844 16.6465 8.57844 16.0607 7.99266C15.4749 7.40687 15.4749 6.45712 16.0607 5.87134Z" fill="#121826"/>
<path d="M12 1.5C12.8284 1.5 13.5 2.17157 13.5 3V4.5C13.5 5.32843 12.8284 6 12 6C11.1716 6 10.5 5.32843 10.5 4.5V3C10.5 2.17157 11.1716 1.5 12 1.5Z" fill="#121826"/>
</g>
<defs>
<clipPath id="clip0_4_10959">
<rect width="24" height="24" fill="white"/>
</clipPath>
</defs>
</svg>
