<svg enable-background="new 0 0 93 25" viewBox="0 0 93 25" xmlns="http://www.w3.org/2000/svg"><g fill="#e6372e"><path d="m2 6.9h2.8l.5 8.3 4-8.3h3l-6.4 12.1h-2.6zm10.8 0h2.8l-2 9.5h-2.8c-.1 0 2-9.5 2-9.5zm11.1 5.6h-5.8c-.1.3-.2 2.1 2 2.1 1.5 0 1.9-.2 2.6-.5l.3 1.6c-.9.5-1.8.6-2.8.7-2.9 0-4.7-.8-4.7-3.9.1-4.9 4.4-5.9 5.5-5.9 5.3.2 2.9 5.9 2.9 5.9zm-2.2-1.7c.1-.3.8-2.5-.9-2.5-1 0-1.7.5-2.1 1.4-.2.5-.3.8-.4 1.1-.1 0 3.4 0 3.4 0zm21.3 1.7h-5.8c-.1.3-.2 2.1 2 2.1 1.5 0 1.9-.2 2.6-.5l.3 1.6c-.9.5-1.8.6-2.8.7-2.9 0-4.7-.8-4.7-3.9.1-4.9 4.4-5.9 5.5-5.9 5.3.2 2.9 5.9 2.9 5.9zm-2.2-1.7c.1-.3.8-2.5-.9-2.5-1 0-1.7.5-2.1 1.4-.2.5-.3.8-.4 1.1zm-14.2-5.3s.3-.5 1.3-.7 1.8 0 1.8 0l-.5 2.2h1.5l-.3 1.7h-1.6l-1 4.9c0 .2-.3 1.5 1.5 1.1 0 0-.8 2.2-3 1.8-.7-.1-1.7-.9-1.5-2.2-.1-.1 1.8-8.8 1.8-8.8zm19.2 0s.3-.5 1.3-.7 1.8 0 1.8 0l-.5 2.2h1.5l-.3 1.7h-1.6l-1 4.9c0 .2-.3 1.5 1.5 1.1 0 0-.8 2.2-3 1.8-.7-.1-1.7-.9-1.5-2.2z"/><path d="m31.9 6.9h2.7l-1.8 9.1c-.6 2.7-3.3 5.3-6.9 4.2-1.3-.4-2.1-1.6-1.9-2.8 0 0 1.1.9 2.7 1 2.2.1 3.2-2 3.3-2.7 0-.1 1.9-8.8 1.9-8.8zm30-2.1h2.8l-2 9.5h-2.8s2-9.5 2-9.5zm-5.2 9.5h-3.8l-1.8 2.7h-2.8l7.7-12.2h3l.5 12.2h-2.8zm0-1.7v-5l-2.9 5zm13.8-6.1c-.5-.1-1.5-.2-1.9 0l-1.7 7.8h-2.9l2-8.9c1.6-.9 3.7-.9 5.1-.7z"/></g></svg>