<svg width="24" height="24" viewBox="0 0 24 24" fill="none" xmlns="http://www.w3.org/2000/svg">
<path opacity="0.3" fill-rule="evenodd" clip-rule="evenodd" d="M6.75 3.75C6.75 3.33579 7.08579 3 7.5 3C7.91421 3 8.25 3.33579 8.25 3.75V4.5C8.25 4.91421 7.91421 5.25 7.5 5.25C7.08579 5.25 6.75 4.91421 6.75 4.5V3.75ZM15.75 3.75C15.75 3.33579 16.0858 3 16.5 3C16.9142 3 17.25 3.33579 17.25 3.75V4.5C17.25 4.91421 16.9142 5.25 16.5 5.25C16.0858 5.25 15.75 4.91421 15.75 4.5V3.75ZM6 4.5V3.75C4.34315 3.75 3 5.09315 3 6.75V7.25C3 7.80228 3.44772 8.25 4 8.25H20C20.5523 8.25 21 7.80228 21 7.25V6.75C21 5.09315 19.6569 3.75 18 3.75V4.5C18 5.32843 17.3284 6 16.5 6C15.6716 6 15 5.32843 15 4.5V3.75H9V4.5C9 5.32843 8.32843 6 7.5 6C6.67157 6 6 5.32843 6 4.5Z" fill="#B4BAC4"/>
<path d="M3 10.75C3 10.1977 3.44772 9.75 4 9.75H20C20.5523 9.75 21 10.1977 21 10.75V18C21 19.6569 19.6569 21 18 21H6C4.34315 21 3 19.6569 3 18V10.75Z" fill="#B4BAC4"/>
<circle opacity="0.4" cx="6.72115" cy="13.2243" r="1.47115" fill="white"/>
<circle opacity="0.4" cx="12.0005" cy="13.2243" r="1.47115" fill="white"/>
<circle cx="17.2788" cy="13.2243" r="1.47115" fill="white"/>
<circle opacity="0.4" cx="6.72115" cy="17.6953" r="1.47115" fill="white"/>
<circle opacity="0.4" cx="12.0005" cy="17.6955" r="1.47115" fill="white"/>
<circle cx="17.2788" cy="17.6955" r="1.47115" fill="white"/>
</svg>
