<svg width="30" height="30" viewBox="0 0 30 30" fill="none" xmlns="http://www.w3.org/2000/svg">
    <defs>
        <linearGradient id="paint0_linear_67_2374" x1="3.75" y1="7.03125" x2="24.6339" y2="12.8408" gradientUnits="userSpaceOnUse">
            <stop stop-color="#FE9B25"/>
            <stop offset="0.994792" stop-color="#FF5922"/>
        </linearGradient>
        <linearGradient id="paint1_linear_67_2374" x1="3.75" y1="19.2187" x2="25.8771" y2="22.0913" gradientUnits="userSpaceOnUse">
            <stop stop-color="#FE9B25"/>
            <stop offset="0.994792" stop-color="#FF5922"/>
        </linearGradient>
    </defs>
    <path opacity="0.3" fill-rule="evenodd" clip-rule="evenodd" d="M8.4375 4.6875C8.4375 4.16973 8.85723 3.75 9.375 3.75C9.89277 3.75 10.3125 4.16973 10.3125 4.6875V5.625C10.3125 6.14277 9.89277 6.5625 9.375 6.5625C8.85723 6.5625 8.4375 6.14277 8.4375 5.625V4.6875ZM19.6875 4.6875C19.6875 4.16973 20.1072 3.75 20.625 3.75C21.1428 3.75 21.5625 4.16973 21.5625 4.6875V5.625C21.5625 6.14277 21.1428 6.5625 20.625 6.5625C20.1072 6.5625 19.6875 6.14277 19.6875 5.625V4.6875ZM7.5 5.625V4.6875C5.42893 4.6875 3.75 6.36643 3.75 8.4375V9.0625C3.75 9.75286 4.30964 10.3125 5 10.3125H25C25.6904 10.3125 26.25 9.75286 26.25 9.0625V8.4375C26.25 6.36643 24.5711 4.6875 22.5 4.6875V5.625C22.5 6.66053 21.6605 7.5 20.625 7.5C19.5895 7.5 18.75 6.66053 18.75 5.625V4.6875H11.25V5.625C11.25 6.66053 10.4105 7.5 9.375 7.5C8.33947 7.5 7.5 6.66053 7.5 5.625Z" fill="url(#paint0_linear_67_2374)"/>
    <path d="M3.75 13.4375C3.75 12.7471 4.30964 12.1875 5 12.1875H25C25.6904 12.1875 26.25 12.7471 26.25 13.4375V22.5C26.25 24.5711 24.5711 26.25 22.5 26.25H7.5C5.42893 26.25 3.75 24.5711 3.75 22.5V13.4375Z" fill="url(#paint1_linear_67_2374)"/>
    <ellipse opacity="0.4" cx="8.40144" cy="16.5303" rx="1.83894" ry="1.83894" fill="white"/>
    <circle opacity="0.4" cx="15.0001" cy="16.5303" r="1.83894" fill="white"/>
    <circle cx="21.5987" cy="16.5303" r="1.83894" fill="white"/>
    <ellipse opacity="0.4" cx="8.40144" cy="22.1192" rx="1.83894" ry="1.83894" fill="white"/>
    <ellipse opacity="0.4" cx="15.0001" cy="22.1195" rx="1.83894" ry="1.83894" fill="white"/>
    <ellipse cx="21.5987" cy="22.1195" rx="1.83894" ry="1.83894" fill="white"/>
</svg>
