<svg width="33" height="33" viewBox="0 0 33 33" fill="none" xmlns="http://www.w3.org/2000/svg">
<path d="M7.15965 10.4375H11.4736V12.0134V12.5736C11.4736 13.1333 11.7155 13.6383 12.1729 14.0345C12.6303 14.4309 13.2132 14.6406 13.8583 14.6406H18.642C19.287 14.6406 19.8697 14.4309 20.3271 14.0348C20.7848 13.6383 21.0266 13.1333 21.0266 12.5736V12.0134V10.4375H25.3407C25.5869 10.4375 25.8002 10.5154 25.98 10.6712C26.1598 10.8276 26.25 11.0122 26.25 11.2251V31.7124C26.25 31.9255 26.1601 32.1104 25.98 32.2662C25.8002 32.4221 25.5872 32.5003 25.3407 32.5003H19.2671C19.2893 32.4097 19.3029 32.3165 19.3029 32.2185V30.9242V28.6306C19.3029 28.2729 19.1525 27.9629 18.8499 27.7002C18.548 27.4393 18.1903 27.3079 17.7766 27.3079H14.7239C14.3109 27.3079 13.9532 27.4397 13.6506 27.7002C13.3487 27.9628 13.1974 28.2728 13.1974 28.6306V30.9242V32.2186C13.1974 32.3166 13.2107 32.4098 13.2331 32.5003H7.15934C6.91338 32.5003 6.70004 32.4221 6.52001 32.2663C6.34019 32.1102 6.25 31.9255 6.25 31.7124V11.2251C6.25 11.012 6.34019 10.8273 6.52001 10.6712C6.7004 10.5154 6.91338 10.4375 7.15965 10.4375ZM9.11481 25.8187C9.24682 25.9473 9.40283 26.0113 9.58341 26.0113H10.9165C11.0971 26.0113 11.2536 25.9473 11.3856 25.8187C11.5175 25.6903 11.5833 25.5384 11.5833 25.3626V24.0648C11.5833 23.8894 11.5175 23.7371 11.3856 23.6087C11.2536 23.4806 11.0975 23.4156 10.9165 23.4156H9.58341C9.40283 23.4156 9.24682 23.4805 9.11481 23.6087C8.98286 23.7375 8.91666 23.8894 8.91666 24.0648V25.3626C8.91666 25.5384 8.98286 25.6908 9.11481 25.8187ZM8.91666 27.9578V29.2558C8.91666 29.432 8.98286 29.5843 9.11481 29.7121C9.24682 29.841 9.40283 29.9047 9.58341 29.9047H10.9165C11.0971 29.9047 11.2536 29.841 11.3856 29.7121C11.5175 29.584 11.5833 29.432 11.5833 29.2558V27.9578C11.5833 27.7824 11.5175 27.6301 11.3856 27.5016C11.2536 27.3735 11.0975 27.3091 10.9165 27.3091H9.58341C9.40283 27.3091 9.24682 27.3735 9.11481 27.5016C8.98286 27.6305 8.91666 27.7824 8.91666 27.9578ZM9.11481 21.9249C9.24682 22.0537 9.40283 22.1178 9.58341 22.1178H10.9165C11.0971 22.1178 11.2536 22.0537 11.3856 21.9249C11.5175 21.7968 11.5833 21.6449 11.5833 21.4688V20.1713C11.5833 19.9955 11.5175 19.8431 11.3856 19.715C11.2536 19.5866 11.0975 19.5222 10.9165 19.5222H9.58341C9.40283 19.5222 9.24682 19.5866 9.11481 19.715C8.98286 19.8435 8.91666 19.9955 8.91666 20.1713V21.4688C8.91666 21.6449 8.98286 21.7971 9.11481 21.9249ZM9.11481 18.0315C9.24682 18.1604 9.40283 18.2244 9.58341 18.2244H10.9165C11.0971 18.2244 11.2536 18.1603 11.3856 18.0315C11.5175 17.9034 11.5833 17.7515 11.5833 17.5753V16.2775C11.5833 16.1021 11.5175 15.9497 11.3856 15.8213C11.2536 15.6932 11.0975 15.6288 10.9165 15.6288H9.58341C9.40283 15.6288 9.24682 15.6932 9.11481 15.8213C8.98286 15.9502 8.91666 16.1021 8.91666 16.2775V17.5753C8.91666 17.7515 8.98286 17.9038 9.11481 18.0315ZM15.5833 16.2775C15.5833 16.1021 15.5175 15.9497 15.3855 15.8213C15.2535 15.6932 15.0974 15.6288 14.9168 15.6288H13.5832C13.403 15.6288 13.2469 15.6932 13.1145 15.8213C12.9825 15.9502 12.9167 16.1021 12.9167 16.2775V17.5753C12.9167 17.7515 12.9825 17.9038 13.1145 18.0315C13.2469 18.1604 13.403 18.2244 13.5832 18.2244H14.9168C15.0974 18.2244 15.2535 18.1603 15.3855 18.0315C15.5175 17.9034 15.5833 17.7515 15.5833 17.5753V16.2775ZM15.5833 20.1713C15.5833 19.9955 15.5175 19.8431 15.3855 19.715C15.2535 19.5866 15.0974 19.5222 14.9168 19.5222H13.5832C13.403 19.5222 13.2469 19.5866 13.1145 19.715C12.9825 19.8435 12.9167 19.9955 12.9167 20.1713V21.4688C12.9167 21.6449 12.9825 21.7971 13.1145 21.9249C13.2469 22.0537 13.403 22.1178 13.5832 22.1178H14.9168C15.0974 22.1178 15.2535 22.0537 15.3855 21.9249C15.5175 21.7968 15.5833 21.6449 15.5833 21.4688V20.1713ZM21.1144 25.8187C21.2468 25.9473 21.4028 26.0113 21.5834 26.0113H22.9166C23.0972 26.0113 23.2536 25.9473 23.3852 25.8187C23.5176 25.6903 23.5833 25.5384 23.5833 25.3626V24.0648C23.5833 23.8894 23.5175 23.7371 23.3852 23.6087C23.2536 23.4806 23.0972 23.4156 22.9166 23.4156H21.5834C21.4028 23.4156 21.2468 23.4805 21.1144 23.6087C20.9829 23.7375 20.9167 23.8894 20.9167 24.0648V25.3626C20.9167 25.5384 20.9829 25.6908 21.1144 25.8187ZM20.9167 27.9578V29.2558C20.9167 29.432 20.9829 29.5843 21.1144 29.7121C21.2468 29.841 21.4028 29.9047 21.5834 29.9047H22.9166C23.0972 29.9047 23.2536 29.841 23.3852 29.7121C23.5176 29.584 23.5833 29.432 23.5833 29.2558V27.9578C23.5833 27.7824 23.5175 27.6301 23.3852 27.5016C23.2536 27.3735 23.0972 27.3091 22.9166 27.3091H21.5834C21.4028 27.3091 21.2468 27.3735 21.1144 27.5016C20.9829 27.6305 20.9167 27.7824 20.9167 27.9578ZM21.1144 21.9249C21.2468 22.0537 21.4028 22.1178 21.5834 22.1178H22.9166C23.0972 22.1178 23.2536 22.0537 23.3852 21.9249C23.5176 21.7968 23.5833 21.6449 23.5833 21.4688V20.1713C23.5833 19.9955 23.5175 19.8431 23.3852 19.715C23.2536 19.5866 23.0972 19.5222 22.9166 19.5222H21.5834C21.4028 19.5222 21.2468 19.5866 21.1144 19.715C20.9829 19.8435 20.9167 19.9955 20.9167 20.1713V21.4688C20.9167 21.6449 20.9829 21.7971 21.1144 21.9249ZM21.1144 18.0315C21.2468 18.1604 21.4028 18.2244 21.5834 18.2244H22.9166C23.0972 18.2244 23.2536 18.1603 23.3852 18.0315C23.5176 17.9034 23.5833 17.7515 23.5833 17.5753V16.2775C23.5833 16.1021 23.5175 15.9497 23.3852 15.8213C23.2536 15.6932 23.0972 15.6288 22.9166 15.6288H21.5834C21.4028 15.6288 21.2468 15.6932 21.1144 15.8213C20.9829 15.9502 20.9167 16.1021 20.9167 16.2775V17.5753C20.9167 17.7515 20.9829 17.9038 21.1144 18.0315ZM16.9167 25.3626C16.9167 25.5384 16.9829 25.6908 17.1145 25.8187C17.2469 25.9472 17.403 26.0113 17.5835 26.0113H18.9169C19.0975 26.0113 19.2535 25.9472 19.3855 25.8187C19.5176 25.6903 19.5833 25.5384 19.5833 25.3626V24.0648C19.5833 23.8894 19.5176 23.7371 19.3855 23.6085C19.2536 23.4805 19.0975 23.4156 18.9169 23.4156H17.5835C17.4033 23.4156 17.2469 23.4805 17.1145 23.6085C16.9829 23.7375 16.9167 23.8894 16.9167 24.0648V25.3626ZM16.9167 21.4688C16.9167 21.6449 16.9829 21.7971 17.1145 21.9249C17.2469 22.0537 17.403 22.1178 17.5835 22.1178H18.9169C19.0975 22.1178 19.2535 22.0537 19.3855 21.9249C19.5176 21.7968 19.5833 21.6449 19.5833 21.4688V20.1713C19.5833 19.9955 19.5176 19.8431 19.3855 19.715C19.2536 19.5866 19.0975 19.5222 18.9169 19.5222H17.5835C17.4033 19.5222 17.2469 19.5866 17.1145 19.715C16.9829 19.8435 16.9167 19.9955 16.9167 20.1713V21.4688ZM16.9167 17.5753C16.9167 17.7515 16.9829 17.9038 17.1145 18.0315C17.2469 18.1604 17.403 18.2244 17.5835 18.2244H18.9169C19.0975 18.2244 19.2535 18.1603 19.3855 18.0315C19.5176 17.9034 19.5833 17.7515 19.5833 17.5753V16.2775C19.5833 16.1021 19.5176 15.9497 19.3855 15.8213C19.2536 15.6932 19.0975 15.6288 18.9169 15.6288H17.5835C17.4033 15.6288 17.2469 15.6932 17.1145 15.8213C16.9829 15.9502 16.9167 16.1021 16.9167 16.2775V17.5753ZM13.5832 26.0113H14.9168C15.0974 26.0113 15.2535 25.9473 15.3855 25.8187C15.5175 25.6903 15.5833 25.5384 15.5833 25.3626V24.0648C15.5833 23.8894 15.5175 23.7371 15.3855 23.6087C15.2535 23.4806 15.0974 23.4156 14.9168 23.4156H13.5832C13.403 23.4156 13.2469 23.4805 13.1145 23.6087C12.9825 23.7375 12.9167 23.8894 12.9167 24.0648V25.3626C12.9167 25.5384 12.9825 25.6908 13.1145 25.8187C13.2469 25.9472 13.403 26.0113 13.5832 26.0113Z" fill="white"/>
<path d="M24.033 7.84154C24.033 7.28036 23.5593 6.8287 22.9829 6.84024L19.8277 6.90349L17.3049 2.01867L15.7218 2.01868L16.9296 6.96156L13.682 7.02663L12.8296 5.87095L11.3987 5.87095L12.3729 7.84154L11.3987 9.81213L12.8296 9.81213L13.682 8.65645L16.9295 8.72154L15.7218 13.6644L17.3049 13.6644L19.8277 8.77959L22.9829 8.84283C23.5593 8.85439 24.033 8.40272 24.033 7.84154Z" fill="white"/>
</svg>
