<svg width="33" height="33" viewBox="0 0 33 33" fill="none" xmlns="http://www.w3.org/2000/svg">
<path d="M29.5682 21.428C29.5678 21.391 29.5644 21.354 29.5581 21.3177V21.3041C29.5513 21.2717 29.5422 21.2399 29.531 21.209L29.5193 21.1784C29.5193 21.1717 29.5147 21.1649 29.5116 21.1589L27.7735 17.2856C28.3226 17.0451 28.683 16.4635 28.684 15.8162V8.3063C28.6832 7.39203 28.0062 6.6511 27.1709 6.65017C27.0786 6.65027 26.9864 6.65936 26.8956 6.67733C26.5794 6.7408 26.2901 6.91367 26.0704 7.17052C24.6821 5.42696 20.7717 4.5 17.0497 4.5C13.4154 4.5 9.60428 5.38367 8.1307 7.04659C7.92889 6.85591 7.68413 6.72783 7.42183 6.67563C7.33097 6.65766 7.23884 6.64857 7.14651 6.64847C6.31088 6.64988 5.63415 7.3917 5.63415 8.3063V15.8153C5.63519 16.4626 5.99559 17.0442 6.54466 17.2847L4.81049 21.1572C4.81049 21.164 4.80584 21.17 4.80274 21.1767C4.79964 21.1835 4.79498 21.1971 4.79111 21.2073C4.77986 21.2382 4.77078 21.27 4.76396 21.3024V21.3168C4.75638 21.3534 4.75171 21.3906 4.75 21.428C4.75 21.4331 4.75 21.4382 4.75 21.4433V26.4193C4.75 26.778 5.01563 27.0687 5.34331 27.0687H6.94331V28.6688C6.94331 29.0274 7.20894 29.3182 7.53662 29.3182H10.0696C10.3973 29.3182 10.6629 29.0274 10.6629 28.6688V27.0695H23.8693V28.6688C23.8693 29.0274 24.1349 29.3182 24.4626 29.3182H26.9956C27.3233 29.3182 27.5889 29.0274 27.5889 28.6688V27.0695H28.9741C29.1317 27.0698 29.2829 27.0013 29.3944 26.8793C29.5059 26.7574 29.5682 26.5918 29.5682 26.4193V21.4433C29.5682 21.4382 29.5682 21.4331 29.5682 21.428ZM18.6226 10.7442C18.6251 10.3731 18.8993 10.073 19.2384 10.0702H23.884C24.2231 10.073 24.4973 10.3731 24.4998 10.7442V13.7008C24.4973 14.0719 24.2231 14.372 23.884 14.3748H19.2384C18.8993 14.372 18.6251 14.0719 18.6226 13.7008V10.7442ZM9.81834 10.7442C9.82087 10.3731 10.0951 10.073 10.4341 10.0702H15.0798C15.4188 10.073 15.6931 10.3731 15.6956 10.7442V13.7008C15.6931 14.0719 15.4188 14.372 15.0798 14.3748H10.4341C10.0951 14.372 9.82087 14.0719 9.81834 13.7008V10.7442ZM6.29571 20.7939L8.96289 14.8374C9.30045 15.3621 9.85021 15.674 10.4365 15.6736H15.0821C15.728 15.6729 16.3242 15.294 16.6449 14.6804H17.6779C17.9987 15.294 18.5948 15.6729 19.2407 15.6736H23.8864C24.4728 15.6738 25.0226 15.3615 25.36 14.8366L28.0271 20.7931H6.29571V20.7939Z" fill="white"/>
</svg>
