<svg width="27" height="27" viewBox="0 0 27 27" fill="none" xmlns="http://www.w3.org/2000/svg">
<g clip-path="url(#clip0_7658_4070)">
<path fill-rule="evenodd" clip-rule="evenodd" d="M18.1262 5.99564H24.7408C25.8487 5.99564 26.75 6.89691 26.75 8.00475V22.6593C26.75 23.7671 25.8487 24.6684 24.7408 24.6684H2.75911C1.65132 24.6684 0.75 23.7671 0.75 22.6593V8.00475C0.75 6.89691 1.65132 5.99564 2.75911 5.99564H9.37377L9.97995 3.26778C10.1024 2.71685 10.5821 2.33203 11.1465 2.33203H16.3535C16.9178 2.33203 17.3975 2.7168 17.52 3.26778L18.1262 5.99564ZM11.1465 3.0937C10.9418 3.0937 10.768 3.23325 10.7235 3.43302L10.6063 3.96023H16.8936L16.7764 3.43297C16.732 3.23325 16.5581 3.0937 16.3535 3.0937H11.1465ZM17.0629 4.722H10.4371L10.1541 5.99564H17.3459L17.0629 4.722ZM20.6699 6.75736H21.051H21.9176H22.298V14.518V15.7392V23.0665V23.9066H21.9176H21.051H20.6699V23.0665V15.7392V14.518V6.75736ZM5.20142 6.75736H5.58239H6.44893H6.82946V23.9066H6.44898H5.58239H5.20142V6.75736ZM14.5646 11.6687C14.5646 13.0177 13.471 14.1112 12.122 14.1112C10.773 14.1112 9.67944 13.0177 9.67944 11.6687C9.67944 10.3197 10.773 9.22607 12.122 9.22607C13.471 9.22607 14.5646 10.3197 14.5646 11.6687ZM17.422 16.1838L17.222 15.0561C17.163 14.723 16.7475 14.6021 16.519 14.8516L15.7455 15.6962L14.6112 15.5379C14.2761 15.4911 14.0328 15.8489 14.1995 16.1433L14.7638 17.14L14.2627 18.1698C14.1147 18.4741 14.3797 18.816 14.7112 18.7484L15.8335 18.5198L16.6581 19.3146C16.9017 19.5494 17.3088 19.403 17.347 19.0668L17.4763 17.9288L18.4871 17.3902C18.7857 17.2311 18.7722 16.7986 18.4643 16.6584L17.422 16.1838ZM11.6732 20.1726L10.7128 20.5482C10.2941 20.7121 9.82187 20.5054 9.65805 20.0866L9.28237 19.1263C9.11855 18.7075 9.32523 18.2353 9.74397 18.0715L10.7043 17.6958C11.1231 17.532 11.5953 17.7387 11.7591 18.1574L12.1348 19.1177C12.2986 19.5365 12.0919 20.0087 11.6732 20.1726Z" fill="white"/>
</g>
<defs>
<clipPath id="clip0_7658_4070">
<rect width="26" height="26" fill="white" transform="translate(0.75 0.5)"/>
</clipPath>
</defs>
</svg>
