<svg width="24" height="24" viewBox="0 0 24 24" fill="none" xmlns="http://www.w3.org/2000/svg">
<g clip-path="url(#clip0_4_10797)">
<ellipse opacity="0.3" cx="12" cy="12.25" rx="10" ry="9.75" fill="#9398A3"/>
<path fill-rule="evenodd" clip-rule="evenodd" d="M12 2.21635C10.6108 2.21635 9.28778 2.49655 8.08552 3.00295L6.95335 1.66827C6.7843 1.46899 6.48394 1.44299 6.28248 1.61021C6.20417 1.67521 6.14909 1.7634 6.12537 1.86176L5.0506 6.31886C4.98959 6.57191 5.1475 6.82598 5.40332 6.88634C5.44829 6.89695 5.49458 6.90102 5.54074 6.89844L10.176 6.63861C10.4385 6.62389 10.6393 6.4014 10.6244 6.14167C10.6186 6.04024 10.5798 5.94338 10.5138 5.86554L9.37974 4.52865C10.2118 4.2474 11.0941 4.10051 12 4.10051C16.4709 4.10051 20.0952 7.68566 20.0952 12.1082C20.0952 16.5307 16.4709 20.1158 12 20.1158C7.52912 20.1158 3.90476 16.5307 3.90476 12.1082C3.90476 11.3657 4.0064 10.6386 4.20458 9.93971C4.40276 9.24083 3.5 9 3.5 9C3.5 9 2.61207 8.57932 2.3706 9.43084C2.12914 10.2824 2 11.1804 2 12.1082C2 17.5713 6.47715 22 12 22C17.5228 22 22 17.5713 22 12.1082C22 6.64507 17.5228 2.21635 12 2.21635ZM11.4514 7H11.3742C11.1353 7 10.9368 7.20417 10.9185 7.46857L10.5228 13.1792C10.506 13.4219 10.6468 13.6437 10.8583 13.7078L15.0805 14.9863C15.1105 14.9954 15.1414 15 15.1724 15C15.3652 15 15.5215 14.8265 15.5215 14.6124V14.3994C15.5215 14.2173 15.4336 14.0491 15.2912 13.9588L12.3221 12.0749L11.9062 7.45699C11.8828 7.19756 11.6862 7 11.4514 7Z" fill="#9398A3"/>
</g>
<defs>
<clipPath id="clip0_4_10797">
<rect width="24" height="24" fill="white"/>
</clipPath>
</defs>
</svg>
