<svg width="25" height="24" viewBox="0 0 25 24" fill="none" xmlns="http://www.w3.org/2000/svg">
<path d="M21.625 3.75H3.625C3.42609 3.75 3.23532 3.67098 3.09467 3.53033C2.95402 3.38968 2.875 3.19891 2.875 3C2.875 2.80109 2.95402 2.61032 3.09467 2.46967C3.23532 2.32902 3.42609 2.25 3.625 2.25H21.625C21.8239 2.25 22.0147 2.32902 22.1553 2.46967C22.296 2.61032 22.375 2.80109 22.375 3C22.375 3.19891 22.296 3.38968 22.1553 3.53033C22.0147 3.67098 21.8239 3.75 21.625 3.75Z" fill="#353535" fill-opacity="0.85"/>
<path d="M21.625 8.25H3.625C3.42609 8.25 3.23532 8.17099 3.09467 8.03032C2.95402 7.88966 2.875 7.6989 2.875 7.5C2.875 7.3011 2.95402 7.11034 3.09467 6.96968C3.23532 6.82901 3.42609 6.75 3.625 6.75H21.625C21.8239 6.75 22.0147 6.82901 22.1553 6.96968C22.296 7.11034 22.375 7.3011 22.375 7.5C22.375 7.6989 22.296 7.88966 22.1553 8.03032C22.0147 8.17099 21.8239 8.25 21.625 8.25Z" fill="#353535" fill-opacity="0.85"/>
<path d="M21.625 12.75H3.625C3.42609 12.75 3.23532 12.671 3.09467 12.5303C2.95402 12.3897 2.875 12.1989 2.875 12C2.875 11.8011 2.95402 11.6103 3.09467 11.4697C3.23532 11.329 3.42609 11.25 3.625 11.25H21.625C21.8239 11.25 22.0147 11.329 22.1553 11.4697C22.296 11.6103 22.375 11.8011 22.375 12C22.375 12.1989 22.296 12.3897 22.1553 12.5303C22.0147 12.671 21.8239 12.75 21.625 12.75Z" fill="#353535" fill-opacity="0.85"/>
<path d="M12.625 17.25H3.625C3.42609 17.25 3.23532 17.171 3.09467 17.0303C2.95402 16.8897 2.875 16.6989 2.875 16.5C2.875 16.3011 2.95402 16.1103 3.09467 15.9697C3.23532 15.829 3.42609 15.75 3.625 15.75H12.625C12.8239 15.75 13.0147 15.829 13.1553 15.9697C13.296 16.1103 13.375 16.3011 13.375 16.5C13.375 16.6989 13.296 16.8897 13.1553 17.0303C13.0147 17.171 12.8239 17.25 12.625 17.25Z" fill="#353535" fill-opacity="0.85"/>
<path d="M12.625 21.75H3.625C3.42609 21.75 3.23532 21.671 3.09467 21.5303C2.95402 21.3897 2.875 21.1989 2.875 21C2.875 20.8011 2.95402 20.6103 3.09467 20.4697C3.23532 20.329 3.42609 20.25 3.625 20.25H12.625C12.8239 20.25 13.0147 20.329 13.1553 20.4697C13.296 20.6103 13.375 20.8011 13.375 21C13.375 21.1989 13.296 21.3897 13.1553 21.5303C13.0147 21.671 12.8239 21.75 12.625 21.75Z" fill="#353535" fill-opacity="0.85"/>
<path d="M17.0462 21.75H16.9787C16.8761 21.7406 16.7765 21.71 16.6862 21.6603C16.5958 21.6107 16.5167 21.5429 16.4537 21.4613L14.5 18.9075C14.4122 18.7507 14.3836 18.5675 14.4195 18.3913C14.4555 18.2151 14.5534 18.0578 14.6957 17.9478C14.8379 17.8378 15.0149 17.7826 15.1944 17.7922C15.3739 17.8018 15.5441 17.8755 15.6738 18L17.1475 19.9125L21.13 16.3463C21.2039 16.2806 21.29 16.23 21.3834 16.1975C21.4768 16.1651 21.5757 16.1513 21.6744 16.157C21.7731 16.1628 21.8697 16.1879 21.9587 16.231C22.0477 16.2741 22.1274 16.3343 22.1931 16.4082C22.2589 16.482 22.3094 16.5681 22.3419 16.6615C22.3744 16.7549 22.3881 16.8538 22.3824 16.9525C22.3766 17.0513 22.3515 17.1479 22.3084 17.2369C22.2653 17.3259 22.2051 17.4056 22.1312 17.4713L17.5488 21.5963C17.4053 21.7065 17.2268 21.7611 17.0462 21.75Z" fill="#353535" fill-opacity="0.85"/>
</svg>
