<svg width="26" height="24" viewBox="0 0 26 24" fill="none" xmlns="http://www.w3.org/2000/svg">
    <defs>
        <linearGradient id="paint0_linear_67_2245" x1="0.500001" y1="7.78852" x2="25.0697" y2="11.0401" gradientUnits="userSpaceOnUse">
            <stop stop-color="#FE9B25"/>
            <stop offset="0.994792" stop-color="#FF5922"/>
        </linearGradient>
        <linearGradient id="paint1_linear_67_2245" x1="0.500001" y1="22.625" x2="15.5755" y2="34.8568" gradientUnits="userSpaceOnUse">
            <stop stop-color="#FE9B25"/>
            <stop offset="0.994792" stop-color="#FF5922"/>
        </linearGradient>
    </defs>
    <path d="M6.39031 15.4299L0.594026 9.70143C0.520304 9.6297 0.487427 9.52709 0.504364 9.42647C0.522297 9.32784 0.587053 9.24515 0.677712 9.20431L2.2458 8.51091C2.38129 8.45113 2.5367 8.45711 2.6672 8.52884L6.28366 10.4924L10.3492 8.5876L4.2941 1.73928C4.22934 1.66555 4.20344 1.56493 4.22237 1.46929C4.24229 1.37365 4.30605 1.29495 4.39372 1.2551L6.85445 0.166206C6.99392 0.104438 7.15432 0.112409 7.28582 0.188123L16.76 5.57788L21.7693 3.22672C22.4118 2.92485 23.1511 2.90195 23.8096 3.16794C24.4771 3.43494 25.0081 3.96096 25.281 4.62646C25.565 5.29594 25.5729 6.05009 25.304 6.72556C25.0459 7.39405 24.5249 7.92802 23.8634 8.205L6.52069 15.4507H6.47984C6.44896 15.4557 6.41721 15.4468 6.39031 15.4299Z" fill="url(#paint0_linear_67_2245)"/>
    <rect opacity="0.3" x="0.5" y="21.375" width="25" height="2.5" rx="1.25" fill="url(#paint1_linear_67_2245)"/>
</svg>
