<svg width="24" height="24" viewBox="0 0 24 24" fill="none" xmlns="http://www.w3.org/2000/svg">
<g clip-path="url(#clip0_454_3425)">
<path opacity="0.3" d="M20.5691 11.0119C19.8091 10.1019 18.8091 9.49189 17.6691 9.24189C17.4191 8.09189 16.9591 7.09189 16.3091 6.27189C16.2891 6.24189 16.2691 6.21189 16.2491 6.19189C14.0591 3.54189 10.4691 3.55189 8.04906 4.92189C5.97906 6.10189 4.21906 8.59189 5.13906 12.1619C3.01906 12.6819 2.03906 14.5319 2.03906 16.2019C2.03906 18.0719 3.25906 20.1819 5.98906 20.3719H16.2891C16.2991 20.3719 16.3191 20.3719 16.3291 20.3719C17.7491 20.3719 19.0991 19.8519 20.1391 18.8919C22.6591 16.6919 22.3291 13.0819 20.5691 11.0119Z" fill="#292D32"/>
<path d="M15.6494 4.6494L15.4297 4.86907V4.89329C14.6884 5.72964 14.25 6.82029 14.25 8.00616C14.25 10.62 16.38 12.75 18.9939 12.75C20.1149 12.75 21.1524 12.3573 21.9583 11.6998C23.0647 10.8239 23.75 9.48057 23.75 7.99387C23.75 5.37846 21.6186 3.25 18.9939 3.25C17.6878 3.25 16.5053 3.79348 15.6494 4.6494Z" fill="#292D32" stroke="white" stroke-width="1.5"/>
</g>
<defs>
<clipPath id="clip0_454_3425">
<rect width="24" height="24" fill="white"/>
</clipPath>
</defs>
</svg>
