<svg fill="none" height="25" viewBox="0 0 87 25" width="87" xmlns="http://www.w3.org/2000/svg"><path d="m80.0705 2.1001h.4024c.1006 4.4.2012 8.8.2012 13.2-1.6095 0-3.2189.2-4.7278.4 0-3.5-.1006-7-.2012-10.6.8047-.7 1.5089-1.4 2.213-2.1.503-.5 1.3077-.5 2.1124-.9z" fill="#63b152"/><path d="m82.2833 2.1001h1.4082c.1006.5.2012.9 0 1.4-.9053 3.4-1.71 6.8-2.6153 10.2 0-3.8.2012-7.7.3017-11.5.3018-.1.6036-.1.9054-.1z" fill="#63b152"/><path d="m69.4073 11.9002c1.8107-2.1 3.6213-4.2 5.7337-6.2-.1006 3.4 0 6.7-.1006 10.1-.7041.1-1.4083.3-2.1124.5 0-2.6.1006-5.2 0-7.8-.4024 2.6-.3018 5.3-.6035 7.9-1.6095.4-3.219 1-4.7278 1.6.2012-1.4.1006-2.9.3018-4.3.4023-.7 1.0059-1.2 1.5088-1.8z" fill="#63b152"/><path d="m60.8574 22.3001c1.9112-2.3 3.7219-4.6 5.6331-6.9.1006 1 .2012 2 .3018 2.9-2.213 1.1-4.1242 2.5-5.9349 4z" fill="#63b152"/><g fill="#02508b"><path d="m1.10645 9.3002c0-.6.60355-.6 1.1065-.6h4.22482c1.10649 0 2.21299.9 2.41418 2 .20118.7-.30178 1.3-.60355 1.9.30177.6.70414 1.1.60355 1.8-.1006 1.2-1.20709 2.1-2.41418 2.1s-2.31359 0-3.52068 0c-.60355 0-1.30769.1-1.91123-.3v-.1s0 .1.10059.1c0-2.3-.10059-4.6 0-6.9zm1.81064.8v1.8c1.1065 0 2.21299.1 3.31949 0 .50296 0 1.00591-.7.80473-1.2-.10059-.4-.60354-.6-1.00591-.6-1.1065-.1-2.11241 0-3.11831 0zm0 3.2v1.8c1.1065-.1 2.31359.1 3.42008-.1.80473-.2.80473-1.5-.10059-1.7-1.1065-.1-2.21299 0-3.31949 0z"/><path d="m12.9757 9.6003c.503-1.3 2.9171-1.3 3.3195.1 1.0059 2.3 2.0118 4.6 3.0177 6.8-.6035 0-1.3076.1-1.8106-.2-.503-.5-.7041-1.3-1.0059-2-1.2071 0-2.4142 0-3.6213 0-.3017.7-.6035 1.4-.9053 2.1-.5029-.1-1.3077.2-1.6094-.3 0-.5.3017-.9.5029-1.3.503-1.7 1.3077-3.5 2.1124-5.2zm1.6095.6c-.4024.9-.8048 1.8-1.2071 2.7h2.4142c-.4024-.9-.8048-1.8-1.2071-2.7z"/><path d="m20.5205 9.3002c0-.5.6036-.6.9053-.6h9.9585c.1006 2.6 0 5.2 0 7.9-.6035-.1-1.6094.2-1.8106-.6-.1006-1.8 0-3.7 0-5.5-2.4142 0-4.929 0-7.3431 0v6c-.6036 0-1.8107.2-1.8107-.7.1006-2.2.1006-4.4.1006-6.5z"/><path d="m34.4016 8.70021c1.5089-.1 3.0178 0 4.6272 0 1.2071 0 2.3136.8 2.5148 1.99999.2012.7-.3018 1.3-.6036 1.9.3018.6.8048 1.3.6036 2-.2012 1.2-1.4083 1.9-2.5148 1.9-1.4083 0-2.8165 0-4.2248 0-.4024 0-1.0059-.2-.9053-.7 0-2.1 0-4.2 0-6.29999-.1006-.4.1006-.8.5029-.8zm1.3077 1.39999v1.8c1.2071 0 2.4142.1 3.5207-.1.8047-.3.7041-1.5-.1006-1.7-1.2071-.1-2.3136 0-3.4201 0zm0 3.2v1.8c1.2071 0 2.3136.1 3.5207-.1.8047-.2.8047-1.5-.1006-1.7-1.1065-.1-2.3136 0-3.4201 0z"/><path d="m46.071 8.70014c1.7101-.5 3.8225-.3 5.1301.9.7042.59996.9054 1.49996.8048 2.39996-.1006 1.1.2012 2.3-.6036 3.2-1.4082 1.5-3.6212 1.7-5.5325 1.1-1.3077-.4-2.5147-1.5-2.3136-2.9.1006-1.1-.3017-2.5.503-3.49996.6035-.5 1.3077-.9 2.0118-1.2zm.7041 1.39996c-.6035.2-1.3076.6-1.3076 1.3 0 .9-.1006 1.9.1006 2.8.7041 1.1 2.213 1.3 3.3195 1 .6035-.2 1.4082-.7 1.4082-1.4 0-.9.1006-1.9-.1006-2.8-.8047-1.09996-2.3136-1.29996-3.4201-.9z"/><path d="m56.3306 8.7002c1.4083-.4 3.0177-.4 4.3254.3.8047.4 1.6095 1.1 1.6095 2.1 0 1.1.1006 2.1 0 3.2-.3018 1.2-1.5089 1.9-2.716 2.2-1.71.4-3.8224.1-5.1301-1.3-.9053-1-.503-2.4-.6036-3.6 0-1.4 1.2071-2.5 2.5148-2.9zm.9053 1.3c-.6035.2-1.3077.5-1.5088 1.1 0 1-.1006 2 0 3 1.0059 1.5 3.7218 1.5 4.7277 0 .1006-1 .2012-2.1 0-3.2-.7041-1-2.1124-1.2-3.2189-.9z"/><path d="m75.8455 15.7003c1.6094-.3 3.1183-.4 4.7277-.4-.5029 1-1.0059 2.1-2.0118 2.9-2.0118 1.6-4.5266 2.3-7.0413 2.9-3.3195.9-6.8402 1.2-10.2603 1.6-.2012 0-.503-.1-.7041-.1l.2011-.2c1.8107-1.6 3.7219-3 5.9349-3.9.3018-.1.6035-.3.8047-.4 1.5089-.7 3.1184-1.2 4.7278-1.6.1006 0 .4024-.1.6036-.1.7041-.2 1.4082-.3 2.1124-.5.3017-.1.7041-.2.9053-.2z"/><path d="m21.2246 19.0002c.8048-.6 2.213-.4 2.6154.5-.8047.1-1.7101-.8-2.4142 0 .503.7 1.6095.1 2.213.8.4024.4 0 1-.5029 1.1-.8048.3-1.8107.2-2.3136-.5.1006-.4.6035-.1.8047 0 .5029.3 1.2071.3 1.5089-.2-.6036-.5-1.5089-.1-2.1125-.6-.2011-.3-.1005-.9.2012-1.1z"/><path d="m2.51471 18.8002c.30177-.3.90532-.2 1.00591.2.40236.8.70413 1.6 1.1065 2.4-.20119 0-.40237 0-.70414.1-.10059-.3-.30177-.5-.40236-.8-.40237 0-.80473 0-1.20709 0-.20119.3-.30178.5-.40237.8-.20118 0-.50295-.1-.60354-.1.40236-.8.70413-1.8 1.20709-2.6zm0 1.4h.90532c-.20119-.3-.30178-.6-.40237-1-.30177.4-.40236.7-.50295 1z"/><path d="m5.02976 18.8002c.20118 0 .50295-.1.60354-.1v2.9c-.20118-.1-.70414-.1-.60354-.4 0-.9 0-1.6 0-2.4z"/><path d="m6.53809 18.7003c.80473.1 1.91123-.3 2.51477.4.40237.5 0 1-.40236 1.4.20118.3.30177.7.50295 1-.20118 0-.50295 0-.70413 0-.20119-.3-.40237-.6-.60355-1-.30177 0-.60354 0-.80472 0v1c-.20119 0-.50296-.1-.60355-.1 0-.9.10059-1.8.10059-2.7zm.60355.5v.8c.50295-.1 1.60945.2 1.40827-.6-.40237-.3-.90532-.2-1.40827-.2z"/><path d="m9.95827 18.8002c.20123 0 .50293-.1.70413-.1v2.2c.4024.1.8047.1 1.2071 0 0-.7 0-1.4 0-2.1.2012 0 .503-.1.6035-.1 0 .7-.1005 1.4 0 2.2.3018.3.8048.1 1.2071.1 0-.7 0-1.4 0-2.1.2012 0 .503 0 .6036-.1v2.2c-.4024.5-1.0059.8-1.6095.6-.9053-.3-2.0118.5-2.6153-.5-.30181-.8-.10063-1.6-.10063-2.3z"/><path d="m15.6924 19.0002c.2012-.5.9054-.5 1.1065 0 .4024.8.7042 1.7 1.1065 2.5-.6035.1-.9053-.3-1.1065-.8-.4023 0-.8047 0-1.3076 0-.1006.3-.2012.5-.3018.8-.2012 0-.503-.1-.7041-.1.5029-.8.8047-1.6 1.207-2.4zm.1006 1.2h.9054c-.1006-.3-.3018-.6-.4024-.9-.1006.3-.3018.6-.503.9z"/><path d="m17.7041 18.7001c.2012 0 .503 0 .7041-.1.3018.4.6036.8.9054 1.2.3017-.4.6035-.7.8047-1.1.2012 0 .6035 0 .8047-.1-.4024.6-.9053 1.1-1.3077 1.8-.1006.4 0 .8-.1006 1.1-.9053 0-.4023-1-.8047-1.4-.3018-.4-.6035-.9-1.0059-1.4z"/></g><path d="m25.248 11.6001h1.5089v5.8c-.5029-.1-1.3077.2-1.5089-.5 0-1.8.1006-3.6 0-5.3z" fill="#038344"/><path d="m80.5732 15.3c2.1124 0 4.1242.3 6.136.7-2.1124 1.5-4.2248 2.8-6.5384 3.9-5.8342 2.6-12.4732 3.6-18.911 2.8 3.4201-.5 6.9407-.7 10.2602-1.6 2.5148-.6 4.929-1.4 7.0414-2.9 1.0059-.8 1.5088-1.9 2.0118-2.9z" fill="#4ebeed"/></svg>