<svg width="26" height="25" viewBox="0 0 26 25" fill="none" xmlns="http://www.w3.org/2000/svg">
    <path d="M3.40194 13.5783L1.75692 5.5967C1.73537 5.49613 1.76494 5.39251 1.83484 5.31819C1.90447 5.24608 2.00422 5.2132 2.10231 5.2295L3.79166 5.52242C3.93755 5.54784 4.06354 5.63903 4.13233 5.7711L6.05211 9.41102L10.4915 10.0814L9.25229 1.02442C9.2393 0.927155 9.27357 0.829066 9.34237 0.759989C9.41201 0.691466 9.50871 0.661351 9.60377 0.676828L12.2552 1.13585C12.4055 1.16182 12.5346 1.25743 12.602 1.39338L17.495 11.1334L22.9671 11.9559C23.6692 12.0612 24.297 12.4522 24.6974 13.0388C25.1046 13.6312 25.2546 14.3634 25.1126 15.0686C24.9775 15.7831 24.5657 16.415 23.9672 16.8278C23.3817 17.2409 22.652 17.3961 21.948 17.2596L3.49888 13.6679L3.4649 13.6453C3.43644 13.6323 3.41493 13.6073 3.40194 13.5783Z" fill="#9DA3AE"/>
    <rect opacity="0.3" x="0.5" y="22.375" width="25" height="2.5" rx="1.25" fill="#9DA3AE"/>
</svg>
