<svg width="20" height="18" viewBox="0 0 20 18" fill="none" xmlns="http://www.w3.org/2000/svg">
    <defs>
        <linearGradient id="paint0_linear_4_9999" x1="0.666993" y1="8.99991" x2="19.1922" y2="10.6186" gradientUnits="userSpaceOnUse">
            <stop stop-color="#FE9B25"/>
            <stop offset="0.994792" stop-color="#FF5922"/>
        </linearGradient>
    </defs>
    <path fill-rule="evenodd" clip-rule="evenodd" d="M18.2011 10.1588C18.9181 9.8263 19.2963 9.38328 19.3337 8.90278C19.2958 8.34878 18.956 7.94229 18.2389 7.60978C17.5218 7.27728 16.7659 7.05577 15.9359 7.05578L13.3303 7.09281L9.1771 0.517766C9.13928 0.406772 9.06364 0.332779 8.91285 0.333254L6.79793 0.333255C6.64666 0.333255 6.57102 0.407248 6.49587 0.480768C6.42024 0.554764 6.42024 0.702752 6.45854 0.813266L8.34596 7.09285L4.11722 7.09285L2.94684 5.13487L2.8712 5.06088C2.79557 4.98688 2.71993 4.91289 2.60696 4.95037H1.02151C0.945876 4.95037 0.83242 4.98736 0.757273 5.06088C0.681636 5.13487 0.64382 5.24586 0.682126 5.35638L0.759154 8.75298L0.682126 12.3744C0.682126 12.5224 0.682126 12.5964 0.795095 12.7069C0.870732 12.7809 0.946366 12.8549 1.05933 12.8174H2.64478C2.79606 12.8174 2.87169 12.7434 2.90902 12.6329L4.07941 10.6749H8.30814L6.42073 16.9545C6.38291 17.0655 6.42073 17.1765 6.49587 17.25L6.53369 17.287C6.60933 17.361 6.64715 17.398 6.72278 17.398L8.57297 17.657C8.76206 17.694 8.8377 17.62 8.95067 17.5094L13.2929 10.6754H15.9364C16.7674 10.6754 17.5218 10.5283 18.2011 10.1588Z" fill="url(#paint0_linear_4_9999)"/>
</svg>
