<svg width="186" height="25" viewBox="0 0 186 25" fill="none" xmlns="http://www.w3.org/2000/svg">
<line x1="0.5" y1="11.5527" x2="185.5" y2="11.5528" stroke="#B4BAC4" stroke-linecap="round"/>
<rect x="81" y="0.0131836" width="24" height="24.079" fill="white"/>
<path fill-rule="evenodd" clip-rule="evenodd" d="M99.1505 12.9247C99.6884 12.6745 99.972 12.3411 100 11.9795C99.9716 11.5627 99.7167 11.2568 99.1789 11.0066C98.6411 10.7564 98.0742 10.5897 97.4517 10.5897L95.4975 10.6176L92.3826 5.67009C92.3542 5.58657 92.2975 5.53089 92.1844 5.53125L90.5982 5.53125C90.4848 5.53125 90.428 5.58693 90.3717 5.64225C90.3149 5.69793 90.3149 5.80929 90.3437 5.89245L91.7592 10.6176L88.5877 10.6176L87.7099 9.14432L87.6532 9.08864C87.5964 9.03296 87.5397 8.97728 87.455 9.00548H86.2659C86.2092 9.00548 86.1241 9.03332 86.0677 9.08864C86.011 9.14432 85.9826 9.22783 86.0114 9.31099L86.0691 11.8668L86.0114 14.5918C86.0114 14.7032 86.0114 14.7588 86.0961 14.842C86.1528 14.8977 86.2095 14.9534 86.2943 14.9252H87.4833C87.5968 14.9252 87.6535 14.8695 87.6815 14.7863L88.5593 13.313H91.7309L90.3153 18.0382C90.2869 18.1217 90.3153 18.2052 90.3717 18.2605L90.4 18.2884C90.4568 18.3441 90.4851 18.3719 90.5418 18.3719L91.9295 18.5668C92.0713 18.5946 92.128 18.5389 92.2128 18.4558L95.4695 13.3133H97.4521C98.0753 13.3133 98.6411 13.2027 99.1505 12.9247Z" fill="#B4BAC4"/>
</svg>
