<svg width="87" height="24" viewBox="0 0 87 24" fill="none" xmlns="http://www.w3.org/2000/svg">
<path d="M16.4766 19.5301C15.7192 20.6108 14.8154 21.4011 13.7629 21.9021C12.6683 22.3615 11.4695 22.5882 10.163 22.5882C7.0477 22.5882 4.58569 21.5654 2.78045 19.5301C0.924864 17.533 0 14.7885 0 11.2941C0 7.84028 0.907304 5.11539 2.71489 3.11945C4.60676 1.0402 7.11443 0 10.225 0C12.92 0 15.1526 0.645642 16.9203 1.93346C18.6448 3.30689 19.675 5.0934 20.0122 7.29761H16.9859C16.0997 7.29761 15.4476 6.90305 15.0261 6.11509C14.7323 5.61293 14.3096 5.1582 13.7641 4.74165C12.9212 4.16312 11.809 3.86923 10.4182 3.86923C8.60944 3.86923 7.17531 4.51603 6.12401 5.80384C5.07154 7.17496 4.54823 9.01007 4.54823 11.2941C4.54823 13.6244 5.09261 15.4549 6.18723 16.7821C7.24087 18.0699 8.73587 18.7202 10.6699 18.7202C12.0993 18.7202 13.2782 18.321 14.2055 17.5342C15.1315 16.7011 15.7204 15.5602 15.9721 14.1023H13.3227C12.687 14.1023 12.1544 13.8836 11.7118 13.4451C11.4974 13.2393 11.3279 12.9923 11.2137 12.7192C11.0995 12.4462 11.0432 12.153 11.048 11.8576V10.4182H20.0754V22.0907H18.8801C17.7024 22.0907 16.9625 21.5018 16.6686 20.3366L16.4766 19.5301ZM24.2092 20.5923C23.3277 19.8402 22.6943 18.8336 22.3162 17.5619C21.9337 16.2755 21.7424 14.941 21.7484 13.6001C21.7484 12.4801 21.9064 11.3531 22.2225 10.2342C22.5363 9.11189 23.0338 8.17583 23.7046 7.42142C24.7992 6.17526 26.2076 5.44168 27.9368 5.21027C29.6636 4.98001 31.2206 5.11539 32.6079 5.61293C34.2071 6.24121 35.3848 7.32423 36.1435 8.85965C36.8564 10.2342 37.2158 11.8356 37.2158 13.6638C37.2158 14.9967 37.0683 16.1388 36.7768 17.0933C36.4795 18.0549 36.099 18.8648 35.6412 19.5301C34.6274 20.9024 33.3455 21.754 31.7884 22.0884C30.4181 22.4605 28.9761 22.4927 27.5902 22.1821C26.1772 21.8685 25.0498 21.3409 24.2092 20.5923ZM27.239 9.60943C26.3551 10.5663 25.9547 11.9907 26.0414 13.8825C26.1245 15.7766 26.4816 17.0922 27.1126 17.8443C27.3655 18.1775 27.8068 18.4552 28.4402 18.6855C29.0565 18.9164 29.7327 18.9395 30.3637 18.7514C31.0157 18.5616 31.5964 18.0954 32.1022 17.3456C32.6056 16.597 32.8772 15.3924 32.9193 13.7251C32.9193 12.229 32.677 11.1055 32.1923 10.3592C31.71 9.61059 31.1504 9.1304 30.5217 8.9256C29.9108 8.716 29.2482 8.70385 28.6298 8.89089C27.9976 9.07949 27.5317 9.31669 27.239 9.60943ZM45.8311 22.0363C44.3264 22.119 42.8176 22.0989 41.3157 21.9761C39.6966 21.85 38.8865 20.8341 38.8865 18.9192V0.600516H41.1623C41.7055 0.600516 42.189 0.807632 42.6093 1.22186C43.0296 1.6384 43.2415 2.13479 43.2415 2.71795V5.52152H45.83V6.3951C45.83 7.0176 45.6192 7.52787 45.1978 7.92359C44.9972 8.11568 44.7602 8.26678 44.5005 8.36824C44.2407 8.46969 43.9633 8.51951 43.684 8.51485H43.2415V17.7378C43.2415 18.4448 43.6606 18.7977 44.5035 18.7977H45.83L45.8311 22.0363ZM58.0557 21.4046C57.1823 21.8555 56.2307 22.1397 55.2507 22.2423C54.2591 22.3476 53.3846 22.3996 52.6306 22.3996C51.1134 22.3996 49.787 21.9947 48.6526 21.1847C47.5158 20.3701 46.948 19.0314 46.948 17.157C46.948 15.4121 47.4643 14.1636 48.4933 13.4173C49.5224 12.6664 50.8394 12.1689 52.4398 11.9189C52.6482 11.9189 52.9034 11.8865 53.1961 11.8252C53.4911 11.7616 53.8295 11.713 54.2076 11.6713C56.0585 11.4191 56.9845 10.8764 56.9845 10.0491C56.9845 9.42314 56.6591 9.01933 56.007 8.82841C55.3549 8.64559 54.752 8.5484 54.2076 8.5484C53.6164 8.5484 53.0919 8.63402 52.6306 8.79833C52.4058 8.87599 52.1998 8.99914 52.0259 9.15991C51.8519 9.32069 51.7138 9.51556 51.6203 9.73208H47.3929C47.539 8.48449 48.1725 7.34269 49.1583 6.55015C50.2916 5.59557 51.9153 5.1177 54.0191 5.1177C56.3758 5.1177 58.1412 5.51226 59.3189 6.30254C60.5435 7.13678 61.1534 8.29963 61.1534 9.79572V15.4769C61.1534 17.1396 60.8491 18.4402 60.2379 19.3751C59.6245 20.31 58.8986 20.9869 58.0557 21.4046ZM57.0501 13.724C56.4554 14.0179 55.637 14.2886 54.5869 14.5362L53.134 14.8498C52.3754 15.0592 51.8287 15.3277 51.4915 15.6586C51.1965 16.1168 51.0513 16.5738 51.0513 17.0355C51.0513 17.6545 51.241 18.159 51.6203 18.5293C51.9985 18.8636 52.5452 19.0303 53.2605 19.0303C54.4371 19.0303 55.3631 18.6982 56.0386 18.0306C56.7106 17.3664 57.0513 16.4512 57.0513 15.286L57.0501 13.724ZM74.3111 0.600516H76.4594C77.0471 0.600516 77.5528 0.818044 77.9731 1.25194C78.3946 1.69279 78.6053 2.18107 78.6053 2.71795V14.888C78.6053 17.8408 77.7448 19.8379 76.0168 20.8804C74.3276 21.9069 72.3816 22.4464 70.3986 22.4378C69.3032 22.4376 68.2154 22.2586 67.1791 21.9079C66.1302 21.5573 65.2849 20.9834 64.6539 20.192C63.4328 18.6565 62.8241 16.553 62.8241 13.8917C62.8241 11.2698 63.4328 9.16975 64.6539 7.59035C65.9147 5.97046 67.5373 5.15704 69.517 5.15704C70.5672 5.15704 71.4932 5.36531 72.294 5.77723C73.1369 6.28055 73.8089 6.92851 74.3123 7.713L74.3111 0.600516ZM67.1147 13.7008C67.1147 15.367 67.4332 16.6328 68.0618 17.5087C68.6928 18.3811 69.599 18.8185 70.7767 18.8185C71.9135 18.8185 72.7985 18.3811 73.4284 17.5087C74.0173 16.6328 74.3111 15.367 74.3111 13.7008C74.3111 12.2047 73.9962 11.0164 73.3663 10.1417C72.6897 9.31206 71.787 8.89668 70.6503 8.89668C69.5545 8.89668 68.6917 9.33636 68.0618 10.2065C67.4332 11.0396 67.1147 12.2047 67.1147 13.7008ZM80.3602 0.600516H82.5963C83.1769 0.600516 83.671 0.807633 84.0866 1.22418C84.5022 1.63841 84.7059 2.13941 84.7059 2.72489V4.037H80.3602V0.600516ZM80.3602 5.47292H82.5963C83.1769 5.47292 83.671 5.68351 84.0866 6.09774C84.5022 6.51544 84.7059 7.01529 84.7059 7.59498V22.0884H80.3602V5.47292Z" fill="white"/>
</svg>
