<svg width="25" height="24" viewBox="0 0 25 24" fill="none" xmlns="http://www.w3.org/2000/svg">
<path d="M12.125 12C14.8128 12 17 9.81278 17 7.125C17 4.43722 14.8128 2.25 12.125 2.25C9.43725 2.25 7.25003 4.43722 7.25003 7.125C7.25003 9.81278 9.43725 12 12.125 12ZM12.125 3.64286C14.045 3.64286 15.6072 5.20506 15.6072 7.125C15.6072 9.04494 14.045 10.6071 12.125 10.6071C10.2051 10.6071 8.64289 9.04494 8.64289 7.125C8.64289 5.20506 10.2051 3.64286 12.125 3.64286Z" fill="#353535" fill-opacity="0.85" stroke="#353535" stroke-opacity="0.85" stroke-width="0.3"/>
<path d="M19.611 15.3865C17.8576 14.4772 15.1352 13.3931 12.125 13.3931C9.11488 13.3931 6.39242 14.4772 4.6391 15.3865C3.24217 16.1108 2.37503 17.5376 2.37503 19.1107V19.748C2.37503 20.8518 3.26801 21.7502 4.36502 21.7502H19.885C20.9821 21.7502 21.875 20.8518 21.875 19.748V19.1107C21.875 17.5376 21.0079 16.1108 19.611 15.3865ZM20.4822 19.748C20.4822 20.0839 20.2142 20.3574 19.885 20.3574H4.36502C4.03585 20.3574 3.76789 20.0839 3.76789 19.748V19.1107C3.76789 18.06 4.34734 17.1064 5.27976 16.6229C6.89638 15.785 9.39577 14.7859 12.125 14.7859C14.8543 14.7859 17.3537 15.785 18.9703 16.6229C19.9027 17.1064 20.4822 18.06 20.4822 19.1107V19.748Z" fill="#353535" fill-opacity="0.85" stroke="#353535" stroke-opacity="0.85" stroke-width="0.2"/>
</svg>
