<svg width="40" height="40" viewBox="0 0 40 40" fill="none" xmlns="http://www.w3.org/2000/svg">
<path d="M13.3903 23.4299L7.59403 17.7014C7.5203 17.6297 7.48743 17.5271 7.50436 17.4265C7.5223 17.3278 7.58705 17.2452 7.67771 17.2043L9.2458 16.5109C9.38129 16.4511 9.5367 16.4571 9.6672 16.5288L13.2837 18.4924L17.3492 16.5876L11.2941 9.73928C11.2293 9.66555 11.2034 9.56493 11.2224 9.46929C11.2423 9.37365 11.3061 9.29495 11.3937 9.2551L13.8544 8.16621C13.9939 8.10444 14.1543 8.11241 14.2858 8.18812L23.76 13.5779L28.7693 11.2267C29.4118 10.9249 30.1511 10.9019 30.8096 11.1679C31.4771 11.4349 32.0081 11.961 32.281 12.6265C32.565 13.2959 32.5729 14.0501 32.304 14.7256C32.0459 15.394 31.5249 15.928 30.8634 16.205L13.5207 23.4507H13.4798C13.449 23.4557 13.4172 23.4468 13.3903 23.4299Z" fill="url(#paint0_linear_1433_8299)"/>
<rect x="7.5" y="29.375" width="25" height="2.5" rx="1.25" fill="url(#paint1_linear_1433_8299)"/>
<defs>
<linearGradient id="paint0_linear_1433_8299" x1="7.5" y1="15.7885" x2="32.5" y2="15.7885" gradientUnits="userSpaceOnUse">
<stop stop-color="#007FFF"/>
<stop offset="1" stop-color="#134DD3"/>
</linearGradient>
<linearGradient id="paint1_linear_1433_8299" x1="7.5" y1="30.625" x2="32.5" y2="30.625" gradientUnits="userSpaceOnUse">
<stop stop-color="#007FFF"/>
<stop offset="1" stop-color="#134DD3"/>
</linearGradient>
</defs>
</svg>
