<svg width="25" height="24" viewBox="0 0 25 24" fill="none" xmlns="http://www.w3.org/2000/svg">
<path fill-rule="evenodd" clip-rule="evenodd" d="M12.3 2.3623C9.85187 2.3623 7.98557 2.47112 6.56651 2.71891C5.15168 2.96596 4.12262 3.36058 3.40262 3.97789C2.66516 4.61015 2.31589 5.42001 2.14867 6.35202C1.98745 7.25063 1.98747 8.31593 1.98749 9.50169L1.98749 9.54317C1.98749 9.85383 2.23933 10.1057 2.54999 10.1057C3.08454 10.1057 3.44573 10.3035 3.67997 10.5713C3.92384 10.8501 4.05865 11.2392 4.05865 11.648C4.05865 12.0568 3.92384 12.4459 3.67997 12.7247C3.44573 12.9925 3.08454 13.1903 2.54999 13.1903C2.23933 13.1903 1.98749 13.4422 1.98749 13.7528L1.98749 13.7943C1.98747 14.9803 1.98745 16.0458 2.14867 16.9445C2.31588 17.8767 2.66514 18.6866 3.40259 19.319C4.1226 19.9363 5.15166 20.331 6.56651 20.5781C7.98557 20.8259 9.85187 20.9347 12.3 20.9347C14.7481 20.9347 16.6144 20.8259 18.0335 20.5781C19.4483 20.331 20.4774 19.9363 21.1974 19.319C21.9348 18.6866 22.2841 17.8767 22.4513 16.9445C22.6125 16.0458 22.6125 14.9803 22.6125 13.7943V13.7943V13.7528C22.6125 13.4422 22.3606 13.1903 22.05 13.1903C21.5154 13.1903 21.1542 12.9925 20.92 12.7247C20.6761 12.4459 20.5413 12.0568 20.5413 11.648C20.5413 11.2392 20.6761 10.8501 20.92 10.5713C21.1542 10.3035 21.5154 10.1057 22.05 10.1057C22.3606 10.1057 22.6125 9.85383 22.6125 9.54317V9.50169V9.50168C22.6125 8.31593 22.6125 7.25063 22.4513 6.35202C22.2841 5.42001 21.9348 4.61015 21.1974 3.97789C20.4774 3.36058 19.4483 2.96596 18.0335 2.71891C16.6144 2.47112 14.7481 2.3623 12.3 2.3623ZM4.52675 9.8306C4.1769 9.43062 3.69867 9.14423 3.113 9.03247C3.11585 8.03575 3.13452 7.22775 3.25599 6.55069C3.39346 5.78449 3.65356 5.2446 4.13486 4.83196C4.6336 4.40436 5.43268 4.05892 6.76003 3.82714C8.08316 3.5961 9.87311 3.4873 12.3 3.4873C12.5863 3.4873 12.8637 3.48882 13.1326 3.49187V5.75261C13.1326 6.06327 13.3844 6.31511 13.6951 6.31511C14.0057 6.31511 14.2576 6.06327 14.2576 5.75261V3.51517C15.7272 3.56081 16.9011 3.6632 17.8399 3.82714C19.1673 4.05892 19.9664 4.40436 20.4651 4.83196C20.9464 5.2446 21.2065 5.78449 21.344 6.55069C21.4655 7.22775 21.4841 8.03575 21.487 9.03247C20.9013 9.14423 20.4231 9.43062 20.0732 9.8306C19.6267 10.3411 19.4163 11.0044 19.4163 11.648C19.4163 12.2916 19.6267 12.9549 20.0732 13.4654C20.4231 13.8654 20.9013 14.1518 21.487 14.2635C21.4841 15.2605 21.4655 16.0687 21.344 16.7459C21.2065 17.5122 20.9464 18.0522 20.4651 18.4649C19.9664 18.8926 19.1673 19.238 17.8399 19.4698C16.8958 19.6347 15.714 19.7373 14.2327 19.7826C14.2489 19.7302 14.2576 19.6746 14.2576 19.6169V17.3383C14.2576 17.0277 14.0057 16.7758 13.6951 16.7758C13.3844 16.7758 13.1326 17.0277 13.1326 17.3383V19.6169C13.1326 19.6828 13.1439 19.746 13.1647 19.8047C12.8858 19.808 12.5977 19.8097 12.3 19.8097C9.87311 19.8097 8.08316 19.7009 6.76003 19.4698C5.43269 19.238 4.63363 18.8926 4.13489 18.4649C3.65358 18.0522 3.39347 17.5122 3.25599 16.7459C3.13451 16.0687 3.11585 15.2605 3.113 14.2635C3.69867 14.1518 4.1769 13.8654 4.52675 13.4654C4.97327 12.9549 5.18365 12.2916 5.18365 11.648C5.18365 11.0044 4.97327 10.3411 4.52675 9.8306ZM13.6951 8.26901C14.0057 8.26901 14.2576 8.52085 14.2576 8.83151V14.2593C14.2576 14.57 14.0057 14.8218 13.6951 14.8218C13.3844 14.8218 13.1326 14.57 13.1326 14.2593V8.83151C13.1326 8.52085 13.3844 8.26901 13.6951 8.26901Z" fill="#353535" fill-opacity="0.85"/>
</svg>
