<svg width="40" height="40" viewBox="0 0 40 40" fill="none" xmlns="http://www.w3.org/2000/svg">
<path fill-rule="evenodd" clip-rule="evenodd" d="M13.4375 9.6875C13.4375 9.16973 13.8572 8.75 14.375 8.75C14.8928 8.75 15.3125 9.16973 15.3125 9.6875V10.625C15.3125 11.1428 14.8928 11.5625 14.375 11.5625C13.8572 11.5625 13.4375 11.1428 13.4375 10.625V9.6875ZM24.6875 9.6875C24.6875 9.16973 25.1072 8.75 25.625 8.75C26.1428 8.75 26.5625 9.16973 26.5625 9.6875V10.625C26.5625 11.1428 26.1428 11.5625 25.625 11.5625C25.1072 11.5625 24.6875 11.1428 24.6875 10.625V9.6875ZM12.5 10.625V9.6875C10.4289 9.6875 8.75 11.3664 8.75 13.4375V14.0625C8.75 14.7529 9.30964 15.3125 10 15.3125H30C30.6904 15.3125 31.25 14.7529 31.25 14.0625V13.4375C31.25 11.3664 29.5711 9.6875 27.5 9.6875V10.625C27.5 11.6605 26.6605 12.5 25.625 12.5C24.5895 12.5 23.75 11.6605 23.75 10.625V9.6875H16.25V10.625C16.25 11.6605 15.4105 12.5 14.375 12.5C13.3395 12.5 12.5 11.6605 12.5 10.625Z" fill="url(#paint0_linear_1433_8264)"/>
<path d="M8.75 18.4376C8.75 17.7473 9.30964 17.1876 10 17.1876H30C30.6904 17.1876 31.25 17.7473 31.25 18.4376V27.5001C31.25 29.5712 29.5711 31.2501 27.5 31.2501H12.5C10.4289 31.2501 8.75 29.5712 8.75 27.5001V18.4376Z" fill="url(#paint1_linear_1433_8264)"/>
<ellipse cx="13.4014" cy="21.5305" rx="1.83894" ry="1.83894" fill="white"/>
<circle cx="20.0001" cy="21.5305" r="1.83894" fill="white"/>
<circle cx="26.5987" cy="21.5305" r="1.83894" fill="white"/>
<ellipse cx="13.4014" cy="27.1193" rx="1.83894" ry="1.83894" fill="white"/>
<ellipse cx="20.0001" cy="27.1195" rx="1.83894" ry="1.83894" fill="white"/>
<ellipse cx="26.5987" cy="27.1195" rx="1.83894" ry="1.83894" fill="white"/>
<defs>
<linearGradient id="paint0_linear_1433_8264" x1="8.75" y1="12.0312" x2="31.25" y2="12.0313" gradientUnits="userSpaceOnUse">
<stop stop-color="#007FFF"/>
<stop offset="1" stop-color="#134DD3"/>
</linearGradient>
<linearGradient id="paint1_linear_1433_8264" x1="8.75" y1="24.2189" x2="31.25" y2="24.2189" gradientUnits="userSpaceOnUse">
<stop stop-color="#007FFF"/>
<stop offset="1" stop-color="#134DD3"/>
</linearGradient>
</defs>
</svg>
