<svg width="40" height="40" viewBox="0 0 40 40" fill="none" xmlns="http://www.w3.org/2000/svg">
<path d="M10.4019 20.5782L8.75692 12.5966C8.73537 12.496 8.76494 12.3924 8.83484 12.3181C8.90447 12.246 9.00422 12.2131 9.10231 12.2294L10.7917 12.5223C10.9376 12.5477 11.0635 12.6389 11.1323 12.771L13.0521 16.4109L17.4915 17.0813L16.2523 8.02429C16.2393 7.92703 16.2736 7.82894 16.3424 7.75987C16.412 7.69134 16.5087 7.66123 16.6038 7.67671L19.2552 8.13573C19.4055 8.1617 19.5346 8.25731 19.602 8.39325L24.495 18.1333L29.9671 18.9558C30.6692 19.061 31.297 19.4521 31.6974 20.0387C32.1046 20.6311 32.2546 21.3633 32.1126 22.0684C31.9775 22.783 31.5657 23.4149 30.9672 23.8277C30.3817 24.2408 29.652 24.396 28.948 24.2595L10.4989 20.6678L10.4649 20.6452C10.4364 20.6322 10.4149 20.6072 10.4019 20.5782Z" fill="url(#paint0_linear_1432_2965)"/>
<rect x="7.5" y="29.375" width="25" height="2.5" rx="1.25" fill="url(#paint1_linear_1432_2965)"/>
<defs>
<linearGradient id="paint0_linear_1432_2965" x1="8.75" y1="15.9903" x2="31.8635" y2="18.63" gradientUnits="userSpaceOnUse">
<stop stop-color="#FE9B25"/>
<stop offset="0.994792" stop-color="#FF5922"/>
</linearGradient>
<linearGradient id="paint1_linear_1432_2965" x1="7.5" y1="30.625" x2="22.5755" y2="42.8568" gradientUnits="userSpaceOnUse">
<stop stop-color="#FE9B25"/>
<stop offset="0.994792" stop-color="#FF5922"/>
</linearGradient>
</defs>
</svg>
