<svg width="22" height="22" viewBox="0 0 22 22" fill="none" xmlns="http://www.w3.org/2000/svg">
    <defs>
        <linearGradient id="paint0_linear_92_2547" x1="1.8335" y1="10.9999" x2="20.0524" y2="12.4786" gradientUnits="userSpaceOnUse">
            <stop stop-color="#FE9B25"/>
            <stop offset="0.994792" stop-color="#FF5922"/>
        </linearGradient>
    </defs>
    <path fill-rule="evenodd" clip-rule="evenodd" d="M19.9788 4.13921C20.2809 3.29265 20.2211 2.62703 19.8576 2.20374C19.3737 1.78045 18.7687 1.71988 17.9221 2.022C17.0756 2.32412 16.2888 2.74819 15.624 3.413L13.5673 5.53027L4.85779 3.47363C4.73663 3.41305 4.61547 3.41305 4.49508 3.53421L2.80115 5.22815C2.67998 5.34931 2.67998 5.47047 2.67998 5.59085C2.67998 5.71202 2.80115 5.83317 2.92231 5.89297L9.57522 9.52246L6.18824 12.9094L3.6478 12.2438H3.52664C3.40547 12.2438 3.28432 12.2438 3.22452 12.365L1.95466 13.6349C1.89408 13.6954 1.8335 13.8166 1.8335 13.937C1.8335 14.0581 1.89408 14.1793 2.01524 14.2391L4.85779 16.9583L7.76099 19.9848C7.88215 20.106 7.94273 20.1666 8.12369 20.1666C8.24486 20.1666 8.36602 20.1666 8.42582 20.0454L9.69567 18.7756C9.81684 18.6544 9.81684 18.5332 9.75625 18.4129L9.09064 15.8724L12.4776 12.4854L16.1071 19.1384C16.1677 19.2595 16.2889 19.3201 16.4092 19.3201H16.4698C16.591 19.3201 16.6516 19.3201 16.7121 19.2595L18.4061 17.9897C18.5878 17.8685 18.5878 17.7473 18.5878 17.5664L16.4705 8.49325L18.5878 6.37599C19.2534 5.71037 19.7372 4.98571 19.9788 4.13921Z" fill="url(#paint0_linear_92_2547)"/>
</svg>
