<svg width="24" height="24" viewBox="0 0 24 24" fill="none" xmlns="http://www.w3.org/2000/svg">
<path opacity="0.3" d="M10.3719 17.9952C10.0285 17.6058 9.57673 17.3448 9.06167 17.2378C8.94872 16.7458 8.74089 16.3179 8.44722 15.9671C8.43819 15.9542 8.42915 15.9414 8.42012 15.9328C7.43067 14.799 5.8087 14.8033 4.71533 15.3894C3.7801 15.8943 2.98493 16.9597 3.40058 18.4872C2.44277 18.7097 2 19.5013 2 20.2158C2 21.0159 2.5512 21.9187 3.78462 22H8.43819C8.44271 22 8.45174 22 8.45626 22C9.09782 22 9.70775 21.7775 10.1776 21.3668C11.3162 20.4254 11.1671 18.8808 10.3719 17.9952Z" fill="#292D32"/>
<path fill-rule="evenodd" clip-rule="evenodd" d="M11.1998 21.742C11.7714 21.8687 12.358 21.9461 12.9553 21.97C13.1153 21.98 13.2753 21.99 13.4353 21.99C16.7853 21.99 19.9253 20.41 21.9053 17.72C22.5753 16.79 22.3953 16.2 22.2253 15.93C22.0653 15.66 21.6153 15.24 20.4953 15.44C19.8753 15.55 19.2453 15.6 18.6153 15.57C16.2853 15.47 14.1753 14.4 12.7053 12.75C11.5243 13.6922 10.614 14.9676 10.1169 16.4338C10.6559 16.5958 11.1296 16.9091 11.5 17.351C12.4719 18.4897 12.6541 20.4756 11.2626 21.6859C11.2418 21.7049 11.2209 21.7236 11.1998 21.742ZM10.1156 16.4334C10.6127 14.9671 11.523 13.6917 12.704 12.7494C11.404 11.2994 10.604 9.40938 10.594 7.36938C10.594 6.22938 10.814 5.12938 11.264 4.08938C11.704 3.07938 11.394 2.54938 11.174 2.32938C10.944 2.09938 10.404 1.77938 9.34404 2.21938C5.25404 3.93938 2.72404 8.03938 3.02404 12.4294C3.08627 13.286 3.26035 14.1169 3.53148 14.9076C3.82907 14.5253 4.19785 14.2214 4.58641 14.0007C5.92276 13.2471 7.90516 13.2416 9.11449 14.6994C9.12553 14.7104 9.13657 14.7269 9.14761 14.7434L9.14762 14.7434C9.50655 15.1945 9.76056 15.7446 9.89861 16.3772C9.97201 16.3933 10.0444 16.412 10.1156 16.4334Z" fill="#292D32"/>
</svg>
